<svg viewBox="0 0 100 100" xmlns="http://www.w3.org/2000/svg">
  <!-- Background -->
  <rect width="100" height="100" fill="#667eea" rx="20"/>
  
  <!-- Modular blocks forming M -->
  <!-- Left vertical blocks -->
  <rect x="22" y="30" width="10" height="10" fill="#00d4ff" rx="2"/>
  <rect x="22" y="42" width="10" height="10" fill="#00d4ff" rx="2"/>
  <rect x="22" y="54" width="10" height="10" fill="#00d4ff" rx="2"/>
  <rect x="22" y="66" width="10" height="10" fill="#00d4ff" rx="2"/>
  
  <!-- Left peak blocks -->
  <rect x="34" y="30" width="10" height="10" fill="#ffd700" rx="2"/>
  <rect x="34" y="42" width="10" height="10" fill="#ffd700" rx="2"/>
  
  <!-- Center valley block -->
  <rect x="46" y="54" width="8" height="10" fill="white" rx="2"/>
  <rect x="46" y="66" width="8" height="10" fill="white" rx="2"/>
  
  <!-- Right peak blocks -->
  <rect x="56" y="30" width="10" height="10" fill="#ffd700" rx="2"/>
  <rect x="56" y="42" width="10" height="10" fill="#ffd700" rx="2"/>
  
  <!-- Right vertical blocks -->
  <rect x="68" y="30" width="10" height="10" fill="#00d4ff" rx="2"/>
  <rect x="68" y="42" width="10" height="10" fill="#00d4ff" rx="2"/>
  <rect x="68" y="54" width="10" height="10" fill="#00d4ff" rx="2"/>
  <rect x="68" y="66" width="10" height="10" fill="#00d4ff" rx="2"/>
</svg>
