<svg xmlns="http://www.w3.org/2000/svg" width="128" height="128" viewBox="0 0 128 128">
  <defs>
    <linearGradient id="bgcalc2" x1="0%" y1="0%" x2="100%" y2="100%">
      <stop offset="0%" stop-color="#1e293b" />
      <stop offset="100%" stop-color="#2563eb" />
    </linearGradient>
  </defs>
  <rect width="128" height="128" rx="28" fill="url(#bgcalc2)" />
  <!-- WSS mit Unterstrich (eleganter) -->
  <text x="64" y="26" font-family="'Segoe UI', Arial, sans-serif" font-size="14" font-weight="700" fill="#ffffff" text-anchor="middle">WSS</text>
  <line x1="44" y1="32" x2="84" y2="32" stroke="#93c5fd" stroke-width="1.5"/>
  <!-- Taschenrechner -->
  <rect x="28" y="42" width="72" height="72" rx="5" fill="none" stroke="#93c5fd" stroke-width="2.5"/>
  <!-- Display (oben) -->
  <rect x="36" y="48" width="56" height="14" rx="2" fill="#0f172a" />
  <!-- Buttons 4x4 Grid -->
  <rect x="36" y="68" width="10" height="10" rx="1" fill="#93c5fd"/>
  <rect x="52" y="68" width="10" height="10" rx="1" fill="#93c5fd"/>
  <rect x="68" y="68" width="10" height="10" rx="1" fill="#93c5fd"/>
  <rect x="84" y="68" width="10" height="10" rx="1" fill="#60a5fa"/>
  
  <rect x="36" y="82" width="10" height="10" rx="1" fill="#93c5fd"/>
  <rect x="52" y="82" width="10" height="10" rx="1" fill="#93c5fd"/>
  <rect x="68" y="82" width="10" height="10" rx="1" fill="#93c5fd"/>
  <rect x="84" y="82" width="10" height="10" rx="1" fill="#60a5fa"/>
</svg>