<svg xmlns="http://www.w3.org/2000/svg" width="128" height="128" viewBox="0 0 128 128">
  <defs>
    <linearGradient id="bgcalc3" x1="0%" y1="0%" x2="100%" y2="100%">
      <stop offset="0%" stop-color="#1e293b" />
      <stop offset="100%" stop-color="#2563eb" />
    </linearGradient>
    <linearGradient id="wss-grad" x1="0%" y1="0%" x2="100%" y2="0%">
      <stop offset="0%" stop-color="#60a5fa" />
      <stop offset="100%" stop-color="#93c5fd" />
    </linearGradient>
  </defs>
  <rect width="128" height="128" rx="28" fill="url(#bgcalc3)" />
  <!-- WSS mit Gradient Fill -->
  <text x="64" y="28" font-family="'Segoe UI', Arial, sans-serif" font-size="16" font-weight="800" fill="url(#wss-grad)" text-anchor="middle">WSS</text>
  <!-- Taschenrechner Umriss -->
  <rect x="32" y="40" width="64" height="76" rx="4" fill="none" stroke="#93c5fd" stroke-width="2.5"/>
  <!-- Display mit Glanz-Effekt -->
  <rect x="38" y="46" width="52" height="16" rx="2" fill="#0f172a" />
  <rect x="38" y="46" width="52" height="3" rx="2" fill="#1e40af" opacity="0.4"/>
  <!-- 3x3 Button Grid -->
  <g opacity="0.9">
    <rect x="40" y="70" width="9" height="9" rx="1" fill="#93c5fd"/>
    <rect x="55" y="70" width="9" height="9" rx="1" fill="#93c5fd"/>
    <rect x="70" y="70" width="9" height="9" rx="1" fill="#93c5fd"/>
    
    <rect x="40" y="83" width="9" height="9" rx="1" fill="#93c5fd"/>
    <rect x="55" y="83" width="9" height="9" rx="1" fill="#93c5fd"/>
    <rect x="70" y="83" width="9" height="9" rx="1" fill="#93c5fd"/>
  </g>
  <!-- Equals Button (länger) -->
  <rect x="85" y="70" width="7" height="22" rx="1" fill="#60a5fa"/>
</svg>