<svg xmlns="http://www.w3.org/2000/svg" width="128" height="128" viewBox="0 0 128 128">
  <defs>
    <linearGradient id="bgcalc4" x1="0%" y1="0%" x2="100%" y2="100%">
      <stop offset="0%" stop-color="#1e293b" />
      <stop offset="100%" stop-color="#2563eb" />
    </linearGradient>
  </defs>
  <rect width="128" height="128" rx="28" fill="url(#bgcalc4)" />
  <!-- WSS mit Rahmen (prominent) -->
  <rect x="38" y="18" width="52" height="18" rx="3" fill="none" stroke="#93c5fd" stroke-width="1.5"/>
  <text x="64" y="30" font-family="'Segoe UI', Arial, sans-serif" font-size="13" font-weight="700" fill="#93c5fd" text-anchor="middle">WSS</text>
  <!-- Taschenrechner kompakt -->
  <rect x="30" y="42" width="68" height="70" rx="4" fill="none" stroke="#93c5fd" stroke-width="2.5"/>
  <!-- Display -->
  <rect x="36" y="48" width="56" height="13" rx="2" fill="#0f172a" stroke="#60a5fa" stroke-width="0.5"/>
  <!-- Number Pad -->
  <g stroke="#93c5fd" stroke-width="0.5" fill="none">
    <rect x="36" y="67" width="11" height="11" rx="1"/>
    <rect x="50" y="67" width="11" height="11" rx="1"/>
    <rect x="64" y="67" width="11" height="11" rx="1"/>
    
    <rect x="36" y="81" width="11" height="11" rx="1"/>
    <rect x="50" y="81" width="11" height="11" rx="1"/>
    <rect x="64" y="81" width="11" height="11" rx="1"/>
  </g>
  <!-- Operation Buttons auf der rechten Seite -->
  <rect x="80" y="67" width="12" height="25" rx="2" fill="none" stroke="#60a5fa" stroke-width="1.5"/>
</svg>